<svg xmlns="http://www.w3.org/2000/svg" width="64" height="64" viewBox="0 0 64 64">
  <!-- Mountain silhouette -->
  <polygon points="8,56 32,16 56,56" fill="#8B8B8B" stroke="#000" stroke-width="2"/>
  <!-- Cloud above mountain -->
  <g>
    <circle cx="24" cy="16" r="5" fill="#EEE" stroke="#000" stroke-width="1"/>
    <circle cx="32" cy="14" r="7" fill="#EEE" stroke="#000" stroke-width="1"/>
    <circle cx="40" cy="16" r="5" fill="#EEE" stroke="#000" stroke-width="1"/>
    <rect x="24" y="16" width="16" height="4" fill="#EEE" stroke="#000" stroke-width="1"/>
  </g>
  <!-- Forecast snowflakes (increased quantity) -->
  <circle cx="28" cy="24" r="1.5" fill="#FFF" stroke="#000" stroke-width="0.5"/>
  <circle cx="32" cy="26" r="1.5" fill="#FFF" stroke="#000" stroke-width="0.5"/>
  <circle cx="36" cy="24" r="1.5" fill="#FFF" stroke="#000" stroke-width="0.5"/>
  <circle cx="30" cy="28" r="1.5" fill="#FFF" stroke="#000" stroke-width="0.5"/>
  <circle cx="34" cy="28" r="1.5" fill="#FFF" stroke="#000" stroke-width="0.5"/>
  <!-- Trees -->
  <g transform="translate(18,42)">
    <polygon points="0,10 5,0 10,10" fill="#4CAF50" stroke="#000" stroke-width="1"/>
    <rect x="4" y="10" width="2" height="4" fill="#8B4513" stroke="#000" stroke-width="1"/>
  </g>
  <g transform="translate(42,42)">
    <polygon points="0,10 5,0 10,10" fill="#4CAF50" stroke="#000" stroke-width="1"/>
    <rect x="4" y="10" width="2" height="4" fill="#8B4513" stroke="#000" stroke-width="1"/>
  </g>
</svg>
