<svg xmlns="http://www.w3.org/2000/svg" width="64" height="64" viewBox="0 0 64 64">
  <!-- Center circle -->
  <circle cx="32" cy="32" r="3" fill="#FFFFFF" stroke="#000" stroke-width="1"/>
  
  <!-- Snowflake arms -->
  <g stroke="#FFFFFF" stroke-width="2" stroke-linecap="round">
    <!-- Vertical line -->
    <line x1="32" y1="10" x2="32" y2="54"/>
    <line x1="28" y1="14" x2="32" y2="10"/>
    <line x1="36" y1="14" x2="32" y2="10"/>
    <line x1="28" y1="50" x2="32" y2="54"/>
    <line x1="36" y1="50" x2="32" y2="54"/>

    <!-- Diagonal left -->
    <line x1="14" y1="32" x2="50" y2="32"/>
    <line x1="18" y1="28" x2="14" y2="32"/>
    <line x1="18" y1="36" x2="14" y2="32"/>
    <line x1="46" y1="28" x2="50" y2="32"/>
    <line x1="46" y1="36" x2="50" y2="32"/>

    <!-- Diagonal right -->
    <line x1="16" y1="16" x2="48" y2="48"/>
    <line x1="20" y1="14" x2="16" y2="16"/>
    <line x1="14" y1="20" x2="16" y2="16"/>
    <line x1="44" y1="44" x2="48" y2="48"/>
    <line x1="50" y1="42" x2="48" y2="48"/>

    <!-- Diagonal left opposite -->
    <line x1="16" y1="48" x2="48" y2="16"/>
    <line x1="20" y1="50" x2="16" y2="48"/>
    <line x1="14" y1="42" x2="16" y2="48"/>
    <line x1="44" y1="20" x2="48" y2="16"/>
    <line x1="50" y1="22" x2="48" y2="16"/>
  </g>
</svg>
